<?xml version="1.0" encoding="utf-8"?>
<!-- Generator: Adobe Illustrator 21.1.0, SVG Export Plug-In . SVG Version: 6.00 Build 0)  -->
<svg version="1.1" baseProfile="tiny" id="Layer_1" xmlns="http://www.w3.org/2000/svg" xmlns:xlink="http://www.w3.org/1999/xlink"
	 x="0px" y="0px" viewBox="0 0 64 64" overflow="scroll" xml:space="preserve">
<g>
	<g>
		<g>
			<circle fill="#010128" cx="32" cy="33.4" r="30"/>
		</g>
		<g>
			<radialGradient id="SVGID_1_" cx="32" cy="32" r="30" gradientUnits="userSpaceOnUse">
				<stop  offset="0.2482" style="stop-color:#666FCA"/>
				<stop  offset="0.3447" style="stop-color:#6168C0"/>
				<stop  offset="0.5103" style="stop-color:#5255A4"/>
				<stop  offset="0.7233" style="stop-color:#3B3778"/>
				<stop  offset="0.9287" style="stop-color:#211547"/>
				<stop  offset="1" style="stop-color:#211547"/>
			</radialGradient>
			<circle fill="url(#SVGID_1_)" cx="32" cy="32" r="30"/>
		</g>
	</g>
	<g>
		<path fill="#CBCBCB" d="M23.8,28.4c-1.9,0.8-4.2,1.6-4.4,2.8c0,0.1,0,0.1,0,0.2C21.1,29.5,23.8,28.4,23.8,28.4z"/>
		<path fill="#CBCBCB" d="M39,24.2c0.4-0.1,0.8-0.3,1.2-0.4c4.2-1.7,4.4-2.4,4.6-3.1C44.8,20.9,41,23.2,39,24.2z"/>
		<path fill="#CBCBCB" d="M44.9,20.7C44.9,20.7,44.9,20.7,44.9,20.7C44.9,20.7,44.9,20.7,44.9,20.7z"/>
		<path fill="#CBCBCB" d="M39.8,53.9c0.3-0.1,4.4-1.1,4.2-3C43.2,52.1,39.8,53.9,39.8,53.9z"/>
		<g>
			<g>
				<path fill="#5B5B5B" d="M51.3,13.2c-5.2-5.2-12-8-19.3-8s-14.1,2.8-19.3,8c-5.2,5.2-8,12-8,19.3s2.8,14.1,8,19.3
					c5.2,5.2,12,8,19.3,8s14.1-2.8,19.3-8c5.2-5.2,8-12,8-19.3S56.5,18.4,51.3,13.2z M32,12.1c-0.8,0-1.4-0.6-1.4-1.4
					c0-0.8,0.6-1.4,1.4-1.4c0.8,0,1.4,0.6,1.4,1.4C33.5,11.4,32.8,12.1,32,12.1z M32.4,14.9c0,0.2-0.2,0.4-0.4,0.4
					c-0.2,0-0.4-0.2-0.4-0.4c0-0.2,0.2-0.4,0.4-0.4C32.3,14.5,32.4,14.7,32.4,14.9z M32,17.6c0.8,0,1.4,0.6,1.4,1.4
					c0,0.8-0.6,1.4-1.4,1.4c-0.8,0-1.4-0.6-1.4-1.4C30.6,18.3,31.2,17.6,32,17.6z M40.4,55c-0.1-0.1-0.2-0.1-0.4-0.1h-0.6v-1.1
					c0-0.2-0.2-0.4-0.4-0.4h-1.3c0,0,0-0.1,0-0.1l-0.9-9c2.5,1,6.8,3.2,7.1,7.1c0.8-1.2,2.5-2.9-0.9-5.8c-2.1-1.9-4.8-3.1-6.5-3.8
					l-0.4-4.3c0-0.1,0.1-0.2,0.2-0.2h2.3c0.1,0,0.3-0.1,0.4-0.1c0.1-0.1,0.1-0.2,0.1-0.4v-1.4c0-0.1-0.1-0.3-0.2-0.4
					c-0.1-0.1-0.3-0.2-0.4-0.2H38v-0.9c0-0.2-0.2-0.4-0.4-0.4h-1.1c0,0-0.1-1.2-0.1-1.2h0.5c0.2,0,0.3-0.1,0.3-0.3v-0.4
					c0-0.2-0.1-0.3-0.3-0.3c0.1-0.1,0.1-0.1,0.1-0.2v-0.4c0-0.2-0.1-0.3-0.3-0.3h-0.1c0-0.1,2.6-7.6,2.6-7.6c0-0.1,0.1-0.3,0.1-0.4
					v-0.3c0-0.1-0.1-0.3-0.1-0.4c-0.1-0.1-0.2-0.1-0.4-0.1h-4.7v-0.8c0.8-0.3,1.5-0.7,2.1-1.3c0.8-0.2,2-0.4,3.4-0.6
					c5-0.6,5.3,1.9,5.3,2.3c1.4-1.5,1.2-2.6-0.4-3.2c-2.7-1-7.6,0.7-7.6,0.7l0,0c0,0,0,0,0,0c0,0,0,0,0,0c0,0,0,0,0,0
					c0.9-1.1,1.4-2.4,1.4-3.9c0-3.5-2.8-6.3-6.3-6.3s-6.3,2.8-6.3,6.3c0,2.8,1.8,5.1,4.2,6v0.8h-4.7c-0.1,0-0.3,0.1-0.4,0.1
					c-0.1,0.1-0.1,0.2-0.1,0.4v0.3c0,0.1,0,0.3,0.1,0.4c0,0,2.6,7.6,2.6,7.6h-0.1c-0.2,0-0.3,0.1-0.3,0.3v0.4c0,0.1,0,0.2,0.1,0.2
					c-0.2,0-0.3,0.2-0.3,0.3V32c0,0.2,0.1,0.3,0.3,0.3h0.5c0,0-0.1,1.2-0.1,1.2h-1.1c-0.2,0-0.4,0.2-0.4,0.4v0.9h-0.7
					c-0.1,0-0.3,0.1-0.4,0.2c-0.1,0.1-0.2,0.3-0.2,0.4v1.4c0,0.1,0.1,0.3,0.1,0.4c0.1,0.1,0.2,0.1,0.4,0.1h2.3
					c0.1,0,0.2,0.1,0.2,0.2l-0.2,1.8l-0.8-0.3c-1.2-0.5-3.6-1.7-5.1-3c-1.3-1-2.1-2.9-2.2-4.1c-0.8,1-1.4,2.1-1.1,3.4
					c0.8,3.2,6.4,5.5,8.1,6.2l0.8,0.3l-1.1,11.6c0,0,0,0.1,0,0.1h-1.3c-0.2,0-0.4,0.2-0.4,0.4v1.1h-0.6c-0.1,0-0.3,0.1-0.4,0.1
					s-0.1,0.2-0.1,0.4v0.8C13.8,52.6,6.8,43.4,6.8,32.5C6.8,18.6,18.1,7.4,32,7.4c12,0,22,8.4,24.5,19.7h-1.6l-3.5,4.1L48,27h-2.3
					v11h2.7v-0.1h0v-6.7L49,32l2.2,2.6h0.4l2.9-3.4v6.7h0.1V38h2c-1.9,8.4-8,15.3-16,18.2v-0.8C40.6,55.3,40.5,55.1,40.4,55z
					 M35.6,15.5c0.8,0,1.4,0.6,1.4,1.4s-0.6,1.4-1.4,1.4c-0.8,0-1.4-0.6-1.4-1.4S34.9,15.5,35.6,15.5z M34.2,12.8
					c0-0.8,0.6-1.4,1.4-1.4c0.8,0,1.4,0.6,1.4,1.4c0,0.8-0.6,1.4-1.4,1.4C34.9,14.2,34.2,13.6,34.2,12.8z M28.4,14.2
					c-0.8,0-1.4-0.6-1.4-1.4c0-0.8,0.6-1.4,1.4-1.4s1.4,0.6,1.4,1.4C29.8,13.6,29.1,14.2,28.4,14.2z M29.8,16.9
					c0,0.8-0.6,1.4-1.4,1.4s-1.4-0.6-1.4-1.4s0.6-1.4,1.4-1.4S29.8,16.1,29.8,16.9z"/>
			</g>
			<g>
				<path fill="#CBCBCB" d="M51.3,12.7c-5.2-5.2-12-8-19.3-8s-14.1,2.8-19.3,8c-5.2,5.2-8,12-8,19.3s2.8,14.1,8,19.3
					c5.2,5.2,12,8,19.3,8s14.1-2.8,19.3-8c5.2-5.2,8-12,8-19.3S56.5,17.9,51.3,12.7z M32,11.6c-0.8,0-1.4-0.6-1.4-1.4
					c0-0.8,0.6-1.4,1.4-1.4c0.8,0,1.4,0.6,1.4,1.4C33.5,10.9,32.8,11.6,32,11.6z M32.4,14.4c0,0.2-0.2,0.4-0.4,0.4
					c-0.2,0-0.4-0.2-0.4-0.4c0-0.2,0.2-0.4,0.4-0.4C32.3,14,32.4,14.2,32.4,14.4z M32,17.1c0.8,0,1.4,0.6,1.4,1.4
					c0,0.8-0.6,1.4-1.4,1.4c-0.8,0-1.4-0.6-1.4-1.4C30.6,17.8,31.2,17.1,32,17.1z M40.4,54.5c-0.1-0.1-0.2-0.1-0.4-0.1h-0.6v-1.1
					c0-0.2-0.2-0.4-0.4-0.4h-1.3c0,0,0-0.1,0-0.1l-0.9-9c2.5,1,6.8,3.2,7.1,7.1c0.8-1.2,2.5-2.9-0.9-5.8c-2.1-1.9-4.8-3.1-6.5-3.8
					L36.3,37c0-0.1,0.1-0.2,0.2-0.2h2.3c0.1,0,0.3-0.1,0.4-0.1c0.1-0.1,0.1-0.2,0.1-0.4v-1.4c0-0.1-0.1-0.3-0.2-0.4
					c-0.1-0.1-0.3-0.2-0.4-0.2H38v-0.9c0-0.2-0.2-0.4-0.4-0.4h-1.1c0,0-0.1-1.2-0.1-1.2h0.5c0.2,0,0.3-0.1,0.3-0.3v-0.4
					c0-0.2-0.1-0.3-0.3-0.3c0.1-0.1,0.1-0.1,0.1-0.2v-0.4c0-0.2-0.1-0.3-0.3-0.3h-0.1c0-0.1,2.6-7.6,2.6-7.6c0-0.1,0.1-0.3,0.1-0.4
					v-0.3c0-0.1-0.1-0.3-0.1-0.4c-0.1-0.1-0.2-0.1-0.4-0.1h-4.7v-0.8c0.8-0.3,1.5-0.7,2.1-1.3c0.8-0.2,2-0.4,3.4-0.6
					c5-0.6,5.3,1.9,5.3,2.3c1.4-1.5,1.2-2.6-0.4-3.2c-2.7-1-7.6,0.7-7.6,0.7l0,0c0,0,0,0,0,0c0,0,0,0,0,0c0,0,0,0,0,0
					c0.9-1.1,1.4-2.4,1.4-3.9c0-3.5-2.8-6.3-6.3-6.3s-6.3,2.8-6.3,6.3c0,2.8,1.8,5.1,4.2,6v0.8h-4.7c-0.1,0-0.3,0.1-0.4,0.1
					c-0.1,0.1-0.1,0.2-0.1,0.4v0.3c0,0.1,0,0.3,0.1,0.4c0,0,2.6,7.6,2.6,7.6h-0.1c-0.2,0-0.3,0.1-0.3,0.3v0.4c0,0.1,0,0.2,0.1,0.2
					c-0.2,0-0.3,0.2-0.3,0.3v0.4c0,0.2,0.1,0.3,0.3,0.3h0.5c0,0-0.1,1.2-0.1,1.2h-1.1c-0.2,0-0.4,0.2-0.4,0.4v0.9h-0.7
					c-0.1,0-0.3,0.1-0.4,0.2c-0.1,0.1-0.2,0.3-0.2,0.4v1.4c0,0.1,0.1,0.3,0.1,0.4c0.1,0.1,0.2,0.1,0.4,0.1h2.3
					c0.1,0,0.2,0.1,0.2,0.2l-0.2,1.8l-0.8-0.3c-1.2-0.5-3.6-1.7-5.1-3c-1.3-1-2.1-2.9-2.2-4.1c-0.8,1-1.4,2.1-1.1,3.4
					c0.8,3.2,6.4,5.5,8.1,6.2l0.8,0.3l-1.1,11.6c0,0,0,0.1,0,0.1h-1.3c-0.2,0-0.4,0.2-0.4,0.4v1.1h-0.6c-0.1,0-0.3,0.1-0.4,0.1
					s-0.1,0.2-0.1,0.4v0.8C13.8,52.1,6.8,42.9,6.8,32C6.8,18.1,18.1,6.8,32,6.8c12,0,22,8.4,24.5,19.7h-1.6l-3.5,4.1L48,26.5h-2.3
					v11h2.7v-0.1h0v-6.7l0.7,0.8l2.2,2.6h0.4l2.9-3.4v6.7h0.1v0.1h2c-1.9,8.4-8,15.3-16,18.2v-0.8C40.6,54.8,40.5,54.6,40.4,54.5z
					 M35.6,15c0.8,0,1.4,0.6,1.4,1.4s-0.6,1.4-1.4,1.4c-0.8,0-1.4-0.6-1.4-1.4S34.9,15,35.6,15z M34.2,12.3c0-0.8,0.6-1.4,1.4-1.4
					c0.8,0,1.4,0.6,1.4,1.4c0,0.8-0.6,1.4-1.4,1.4C34.9,13.7,34.2,13.1,34.2,12.3z M28.4,13.7c-0.8,0-1.4-0.6-1.4-1.4
					c0-0.8,0.6-1.4,1.4-1.4s1.4,0.6,1.4,1.4C29.8,13.1,29.1,13.7,28.4,13.7z M29.8,16.4c0,0.8-0.6,1.4-1.4,1.4s-1.4-0.6-1.4-1.4
					s0.6-1.4,1.4-1.4S29.8,15.6,29.8,16.4z"/>
			</g>
		</g>
	</g>
</g>
</svg>
